<?xml version="1.0" standalone="no"?>
<!DOCTYPE svg PUBLIC "-//W3C//DTD SVG 20010904//EN"
 "http://www.w3.org/TR/2001/REC-SVG-20010904/DTD/svg10.dtd">
<svg version="1.0" xmlns="http://www.w3.org/2000/svg"
 width="578.000000pt" height="558.000000pt" viewBox="0 0 578.000000 558.000000"
 preserveAspectRatio="xMidYMid meet">

<g transform="translate(0.000000,558.000000) scale(0.100000,-0.100000)"
fill="#000000" stroke="none">
<path d="M3516 4960 c-57 -11 -120 -80 -142 -156 -20 -68 -15 -182 12 -260 36
-108 148 -236 273 -312 l32 -19 -39 -46 c-22 -25 -59 -73 -82 -106 l-42 -60
-32 23 c-95 73 -336 168 -472 187 -104 15 -293 5 -391 -21 -203 -53 -456 -224
-600 -406 -68 -86 -199 -318 -217 -384 -4 -14 -11 -34 -17 -45 -18 -39 -81
-241 -96 -310 -71 -320 -87 -519 -62 -771 8 -83 21 -141 56 -244 48 -143 71
-191 137 -280 130 -177 253 -303 379 -387 78 -52 264 -138 321 -149 33 -6 51
-24 25 -24 -5 0 -8 -4 -5 -9 3 -5 113 -8 243 -6 184 2 253 6 305 20 38 9 74
14 80 12 7 -3 4 -6 -7 -7 -11 0 -28 -7 -37 -14 -16 -11 -9 -14 49 -19 37 -4
70 -3 73 2 3 5 17 12 32 16 15 4 32 13 39 21 6 8 22 14 34 14 13 0 32 11 44
26 18 22 36 29 93 33 9 0 27 11 40 24 13 12 38 29 56 36 17 7 32 19 32 25 0 6
16 28 36 48 20 21 34 45 32 55 -2 14 -9 12 -40 -15 -21 -19 -39 -28 -43 -23
-3 6 13 27 37 48 106 94 216 213 242 262 7 14 32 58 54 97 35 59 78 168 122
310 49 154 47 525 -4 779 -22 112 -31 146 -76 305 -8 25 -33 93 -57 152 -23
59 -43 112 -43 117 0 45 -133 264 -203 334 l-38 38 22 18 c12 10 45 58 73 107
31 53 59 90 70 92 10 2 31 -5 46 -16 53 -39 122 -55 223 -50 85 4 97 8 159 44
86 50 203 163 220 212 7 20 17 43 22 51 15 19 10 120 -8 163 -27 63 -114 108
-210 108 -102 -1 -255 -54 -321 -111 l-32 -28 5 52 c5 61 -36 230 -68 282 -27
44 -109 119 -156 143 -46 23 -124 33 -178 22z m156 -227 c54 -59 78 -126 78
-223 0 -93 -8 -110 -45 -90 -75 40 -195 203 -195 265 0 46 35 75 90 75 38 0
51 -5 72 -27z m632 -345 c14 -20 12 -25 -36 -80 -65 -76 -111 -99 -207 -105
-66 -5 -79 -3 -101 15 l-25 21 55 53 c74 72 167 117 242 118 47 0 59 -4 72
-22z m-1249 -386 c114 -26 281 -114 373 -197 137 -123 264 -342 327 -565 15
-52 43 -144 62 -203 18 -60 35 -125 36 -145 l2 -37 -265 0 c-242 -1 -268 -2
-297 -20 -17 -10 -34 -28 -37 -40 -8 -33 11 -89 40 -116 25 -24 28 -24 246
-27 133 -2 241 1 271 8 35 7 54 7 61 0 16 -16 21 -282 6 -365 -43 -250 -119
-398 -309 -601 -236 -253 -558 -351 -916 -280 -252 49 -483 205 -628 423 -139
210 -187 370 -187 633 0 231 37 547 70 595 4 6 15 35 25 65 10 30 29 84 41
120 13 36 24 71 24 78 0 7 15 40 33 74 17 33 42 79 54 102 12 23 22 50 22 62
1 11 11 29 22 40 12 10 36 40 53 65 70 103 220 220 313 243 15 4 42 18 58 30
39 29 55 35 145 57 85 20 270 20 355 1z m555 -2585 c0 -8 -16 -22 -35 -33 -19
-10 -35 -21 -35 -24 0 -3 -16 -14 -35 -24 -19 -11 -35 -23 -35 -28 0 -4 -5 -8
-10 -8 -6 0 -40 -13 -75 -30 -65 -31 -85 -36 -85 -22 1 4 35 23 78 42 81 37
179 97 201 124 16 19 31 21 31 3z m-323 -183 c-3 -3 -12 -4 -19 -1 -8 3 -5 6
6 6 11 1 17 -2 13 -5z m-649 -51 c-10 -2 -26 -2 -35 0 -10 3 -2 5 17 5 19 0
27 -2 18 -5z"/>
<path d="M2502 3512 c-61 -47 -77 -111 -42 -167 28 -45 75 -65 154 -65 l66 0
20 46 c35 75 7 144 -73 183 -53 25 -94 26 -125 3z"/>
<path d="M3090 3464 c-36 -40 -41 -50 -36 -77 14 -71 64 -111 139 -111 43 0
53 4 78 32 31 35 35 56 18 116 -17 60 -49 86 -107 86 -46 0 -53 -3 -92 -46z"/>
<path d="M2122 2387 c-51 -16 -92 -62 -92 -102 0 -26 8 -40 36 -64 43 -35 93
-44 239 -43 55 0 129 -4 164 -9 78 -12 101 0 126 66 34 87 -3 137 -115 155
-83 13 -315 11 -358 -3z"/>
<path d="M3063 2036 c-43 -20 -65 -64 -53 -106 23 -81 79 -99 316 -102 193 -3
206 1 218 68 9 44 -10 83 -50 106 -30 17 -62 22 -334 43 -45 4 -75 1 -97 -9z"/>
<path d="M3715 1490 c-3 -5 1 -10 9 -10 9 0 16 5 16 10 0 6 -4 10 -9 10 -6 0
-13 -4 -16 -10z"/>
<path d="M2718 1153 c7 -3 16 -2 19 1 4 3 -2 6 -13 5 -11 0 -14 -3 -6 -6z"/>
</g>
</svg>
